<?xml version="1.0" standalone="no"?>
<!DOCTYPE svg PUBLIC "-//W3C//DTD SVG 20010904//EN"
 "http://www.w3.org/TR/2001/REC-SVG-20010904/DTD/svg10.dtd">
<svg version="1.0" xmlns="http://www.w3.org/2000/svg"
 width="310.000000pt" height="310.000000pt" viewBox="0 0 310.000000 310.000000"
 preserveAspectRatio="xMidYMid meet">
<metadata>
Created by potrace 1.14, written by Peter Selinger 2001-2017
</metadata>
<g transform="translate(0.000000,310.000000) scale(0.100000,-0.100000)"
fill="#000000" stroke="none">
<path d="M1820 2884 c-8 -3 -44 -14 -80 -26 -88 -28 -125 -48 -261 -138 -184
-122 -229 -132 -544 -117 -347 16 -598 -134 -701 -418 -58 -159 -48 -373 26
-564 28 -73 29 -74 10 -100 -10 -14 -23 -57 -30 -96 -6 -38 -13 -88 -17 -110
-9 -58 -9 -261 0 -324 10 -72 50 -189 87 -254 16 -30 30 -65 30 -80 0 -28 41
-76 65 -78 8 -1 21 -2 28 -3 16 -3 60 19 76 37 37 46 12 129 -46 148 -29 9
-39 21 -63 73 -49 106 -61 159 -64 289 -2 78 3 149 18 227 2 14 5 34 5 44 1
26 16 10 17 -17 1 -12 11 -58 24 -102 12 -44 26 -98 31 -120 5 -22 11 -49 14
-60 8 -34 16 -69 21 -95 2 -14 7 -32 10 -40 3 -8 14 -53 24 -100 18 -82 49
-225 54 -245 1 -5 8 -35 14 -65 l12 -55 233 -1 c222 0 279 -4 412 -24 157 -25
306 -87 378 -156 l37 -37 53 50 c60 57 122 100 192 135 59 30 195 77 245 84
19 3 55 9 80 14 49 9 274 6 330 -4 19 -4 48 -11 64 -16 69 -23 67 -30 66 172
0 101 -1 193 0 205 0 21 2 21 33 9 38 -16 59 -14 93 9 31 20 45 55 37 92 -8
37 -7 46 12 132 72 339 8 763 -142 949 -19 23 -41 42 -49 42 -8 0 -14 6 -15
13 -3 95 -34 237 -70 323 -79 190 -225 331 -398 384 -50 16 -91 20 -200 19
-75 0 -143 -3 -151 -5z m846 -950 c27 -61 60 -176 69 -239 3 -23 8 -52 11 -65
7 -36 7 -266 0 -329 -4 -30 -13 -85 -21 -123 -8 -38 -15 -71 -15 -73 0 -1 -11
-10 -24 -18 -23 -16 -23 -16 -23 26 0 57 -13 335 -18 372 -2 17 -7 53 -10 80
-9 82 -12 85 -57 85 -22 0 -38 3 -36 8 3 7 34 90 46 122 8 24 10 31 29 122 10
49 19 88 21 88 2 0 14 -25 28 -56z"/>
</g>
</svg>
