<?xml version="1.0" standalone="no"?>
<!DOCTYPE svg PUBLIC "-//W3C//DTD SVG 20010904//EN"
 "http://www.w3.org/TR/2001/REC-SVG-20010904/DTD/svg10.dtd">
<svg version="1.0" xmlns="http://www.w3.org/2000/svg"
 width="428.000000pt" height="428.000000pt" viewBox="0 0 428.000000 428.000000"
 preserveAspectRatio="xMidYMid meet">
<metadata>
Created by potrace 1.14, written by Peter Selinger 2001-2017
</metadata>
<g transform="translate(0.000000,428.000000) scale(0.100000,-0.100000)"
fill="#000000" stroke="none">
<path d="M1588 2387 c-54 -45 -64 -111 -25 -168 32 -48 91 -68 143 -48 95 36
113 168 30 223 -38 24 -115 21 -148 -7z"/>
<path d="M2418 2392 c-31 -18 -58 -67 -58 -104 0 -59 69 -128 128 -128 32 0
76 25 101 56 15 19 21 41 21 76 0 43 -4 54 -34 84 -29 29 -40 34 -82 34 -28 0
-61 -8 -76 -18z"/>
<path d="M2545 1786 c-82 -85 -113 -109 -175 -139 -97 -47 -184 -67 -290 -67
-146 0 -267 42 -390 133 -65 49 -112 55 -141 18 -21 -25 -25 -72 -9 -101 15
-28 166 -125 240 -154 190 -75 418 -76 600 -2 134 55 283 172 349 275 36 56
38 79 10 115 -16 20 -29 26 -57 26 -34 -1 -46 -11 -137 -104z"/>
</g>
</svg>
